<?xml version="1.0" encoding="UTF-8"?>
<svg width="51px" height="60px" viewBox="0 0 51 60" version="1.1" xmlns="http://www.w3.org/2000/svg" xmlns:xlink="http://www.w3.org/1999/xlink">
    <!-- Generator: Sketch 48.1 (47250) - http://www.bohemiancoding.com/sketch -->
    <title>calendar</title>
    <desc>Created with Sketch.</desc>
    <defs></defs>
    <g id="Desktop-HD" stroke="none" stroke-width="1" fill="none" fill-rule="evenodd" transform="translate(-173.000000, -2363.000000)">
        <g id="third-function" transform="translate(0.000000, 2232.000000)" fill="#2D9DFF">
            <g id="calendar" transform="translate(173.000000, 131.000000)">
                <path d="M8.0142857,51.9857143 L42.9857143,51.9857143 L42.9857143,17.0142857 L8.0142857,17.0142857 L8.0142857,51.9857143 Z M0,9 L51,9 L51,60 L0,60 L0,9 Z" id="Combined-Shape" fill-rule="nonzero"></path>
                <path d="M41.5,7 C39.5670033,7 38,5.43299662 38,3.5 C38,1.56700337 39.5670033,0 41.5,0 C43.4329967,0 45,1.56700337 45,3.5 C45,5.43299662 43.4329967,7 41.5,7 Z" id="Path" fill-rule="nonzero"></path>
                <path d="M8.50000001,7 C6.56700336,7 5,5.43299662 5,3.5 C5,1.56700337 6.56700336,0 8.50000001,0 C10.4329966,0 12,1.56700337 12,3.5 C12,5.43299662 10.4329966,7 8.50000001,7 Z" id="Path" fill-rule="nonzero"></path>
                <polygon id="Path" fill-rule="nonzero" points="40 4 43 4 43 11 40 11"></polygon>
                <polygon id="Path" fill-rule="nonzero" points="7 4 10 4 10 11 7 11"></polygon>
                <path d="M19,34 L21,34 L21,36 L19,36 L19,38 L17,38 L17,36 L15,36 L15,34 L17,34 L17,32 L19,32 L19,34 Z" id="Combined-Shape"></path>
                <path d="M27.863354,32.9130435 L29.7018634,32.9130435 C30.6294042,32.9047619 31.3643865,32.6645986 31.9068323,32.1925466 C32.4492781,31.7204945 32.7204969,31.0372716 32.7204969,30.1428571 C32.7204969,29.2815692 32.4948263,28.6128388 32.0434783,28.136646 C31.5921302,27.6604531 30.9026961,27.4223602 29.9751553,27.4223602 C29.163557,27.4223602 28.496897,27.6563124 27.9751553,28.1242236 C27.4534135,28.5921348 27.1925466,29.2028948 27.1925466,29.9565217 L24.173913,29.9565217 C24.173913,29.0289809 24.4202874,28.1842688 24.9130435,27.4223602 C25.4057996,26.6604517 26.0931633,26.0662547 26.9751553,25.6397516 C27.8571473,25.2132484 28.844715,25 29.9378882,25 C31.7432802,25 33.1614855,25.4534116 34.1925466,26.3602484 C35.2236076,27.2670853 35.7391304,28.5279422 35.7391304,30.1428571 C35.7391304,30.9544554 35.4803339,31.7184229 34.9627329,32.4347826 C34.445132,33.1511423 33.7764016,33.6915096 32.9565217,34.0559006 C33.9503155,34.3954468 34.7060016,34.929603 35.2236025,35.6583851 C35.7412034,36.3871672 36,37.2567237 36,38.2670807 C36,39.8902773 35.4430698,41.1821898 34.3291925,42.1428571 C33.2153153,43.1035245 31.7515619,43.5838509 29.9378882,43.5838509 C28.1987491,43.5838509 26.7743327,43.1200875 25.6645963,42.1925466 C24.5548599,41.2650057 24,40.0310636 24,38.4906832 L27.0186335,38.4906832 C27.0186335,39.2857183 27.2857116,39.9316745 27.8198758,40.4285714 C28.3540399,40.9254683 29.0724593,41.173913 29.9751553,41.173913 C30.9109778,41.173913 31.6480304,40.9254683 32.1863354,40.4285714 C32.7246404,39.9316745 32.9937888,39.2111848 32.9937888,38.2670807 C32.9937888,37.314695 32.7122181,36.5817831 32.1490683,36.068323 C31.5859185,35.5548629 30.749488,35.2981366 29.6397516,35.2981366 L27.863354,35.2981366 L27.863354,32.9130435 Z" id="3"></path>
            </g>
        </g>
    </g>
</svg>