<?xml version="1.0" encoding="UTF-8"?>
<svg width="30px" height="30px" viewBox="0 0 30 30" version="1.1" xmlns="http://www.w3.org/2000/svg" xmlns:xlink="http://www.w3.org/1999/xlink">
    <!-- Generator: Sketch 48.1 (47250) - http://www.bohemiancoding.com/sketch -->
    <title>Shape</title>
    <desc>Created with Sketch.</desc>
    <defs></defs>
    <g id="Desktop-HD" stroke="none" stroke-width="1" fill="none" fill-rule="evenodd" transform="translate(-283.000000, -3767.000000)">
        <g id="footer" transform="translate(0.000000, 3632.000000)" fill="#FCFCFC" fill-rule="nonzero">
            <g id="github" transform="translate(283.000000, 135.000000)">
                <path d="M15,0.36873638 C23.28125,0.36873638 30,7.08748638 30,15.3687364 C30,21.9898301 25.703125,27.6148301 19.7460938,29.6070176 C18.984375,29.7437364 18.7109375,29.2749864 18.7109375,28.8843614 C18.7109375,28.3960801 18.7304688,26.7749864 18.7304688,24.7632676 C18.7304688,23.3570176 18.2617188,22.4585801 17.7148438,21.9898301 C21.0546875,21.6187364 24.5703125,20.3492051 24.5703125,14.5874864 C24.5703125,12.9468614 23.984375,11.6187364 23.0273438,10.5640489 C23.1835938,10.1734239 23.6914063,8.64998638 22.8710938,6.57967388 C21.6210938,6.18904888 18.75,8.12264263 18.75,8.12264263 C17.5585938,7.79061138 16.2695312,7.61483013 15,7.61483013 C13.7304688,7.61483013 12.4414062,7.79061138 11.25,8.12264263 C11.25,8.12264263 8.37890625,6.18904888 7.12890625,6.57967388 C6.30859375,8.64998638 6.81640625,10.1734239 6.97265625,10.5640489 C6.015625,11.6187364 5.4296875,12.9468614 5.4296875,14.5874864 C5.4296875,20.3296739 8.92578125,21.6187364 12.265625,21.9898301 C11.8359375,22.3804551 11.4453125,23.0445176 11.3085938,24.0015489 C10.4492188,24.3921739 8.26171875,25.0562364 6.953125,22.7515489 C6.1328125,21.3257676 4.6484375,21.2085801 4.6484375,21.2085801 C3.18359375,21.1890489 4.55078125,22.1265489 4.55078125,22.1265489 C5.52734375,22.5757676 6.2109375,24.3140489 6.2109375,24.3140489 C7.08984375,26.9898301 11.2695312,26.0913926 11.2695312,26.0913926 C11.2695312,27.3413926 11.2890625,28.5132676 11.2890625,28.8843614 C11.2890625,29.2749864 11.015625,29.7437364 10.2539062,29.6070176 C4.296875,27.6148301 0,21.9898301 0,15.3687364 C0,7.08748638 6.71875,0.36873638 15,0.36873638 Z M5.68359375,21.9117051 C5.64453125,21.9898301 5.52734375,22.0093614 5.4296875,21.9507676 C5.3125,21.8921739 5.25390625,21.7945176 5.29296875,21.7163926 C5.33203125,21.6577989 5.4296875,21.6382676 5.546875,21.6773301 C5.6640625,21.7359239 5.72265625,21.8335801 5.68359375,21.9117051 Z M6.2890625,22.5757676 C6.2109375,22.6538926 6.07421875,22.6148301 5.9765625,22.5171739 C5.87890625,22.3999864 5.859375,22.2632676 5.9375,22.2046739 C6.015625,22.1265489 6.15234375,22.1656114 6.25,22.2632676 C6.34765625,22.3804551 6.3671875,22.5171739 6.2890625,22.5757676 Z M6.875,23.4546739 C6.796875,23.5132676 6.640625,23.4546739 6.54296875,23.3179551 C6.4453125,23.1812364 6.4453125,23.0249864 6.54296875,22.9663926 C6.640625,22.8882676 6.796875,22.9468614 6.875,23.0835801 C6.97265625,23.2202989 6.97265625,23.3765489 6.875,23.4546739 Z M7.6953125,24.2749864 C7.6171875,24.3726426 7.44140625,24.3531114 7.3046875,24.2163926 C7.16796875,24.0992051 7.12890625,23.9234239 7.2265625,23.8452989 C7.3046875,23.7476426 7.48046875,23.7671739 7.6171875,23.9038926 C7.734375,24.0210801 7.7734375,24.1968614 7.6953125,24.2749864 Z M8.80859375,24.7632676 C8.76953125,24.8804551 8.59375,24.9390489 8.4375,24.8804551 C8.26171875,24.8413926 8.14453125,24.7046739 8.18359375,24.5874864 C8.22265625,24.4702989 8.3984375,24.4117051 8.5546875,24.4507676 C8.73046875,24.5093614 8.84765625,24.6460801 8.80859375,24.7632676 Z M10.0390625,24.8609239 C10.0390625,24.9781114 9.90234375,25.0757676 9.7265625,25.0757676 C9.53125,25.0952989 9.39453125,24.9976426 9.39453125,24.8609239 C9.39453125,24.7437364 9.53125,24.6460801 9.70703125,24.6460801 C9.8828125,24.6265489 10.0390625,24.7242051 10.0390625,24.8609239 Z M11.171875,24.6656114 C11.1914063,24.7827989 11.0742188,24.8999864 10.8984375,24.9390489 C10.7226563,24.9781114 10.5664063,24.8999864 10.546875,24.7827989 C10.5273438,24.6460801 10.6445313,24.5288926 10.8203125,24.4898301 C10.9960938,24.4702989 11.1523438,24.5484239 11.171875,24.6656114 Z" id="Shape"></path>
            </g>
        </g>
    </g>
</svg>