<?xml version="1.0" encoding="UTF-8"?>
<svg width="30px" height="30px" viewBox="0 0 30 30" version="1.1" xmlns="http://www.w3.org/2000/svg" xmlns:xlink="http://www.w3.org/1999/xlink">
    <!-- Generator: Sketch 48.1 (47250) - http://www.bohemiancoding.com/sketch -->
    <title>Shape</title>
    <desc>Created with Sketch.</desc>
    <defs></defs>
    <g id="Desktop-HD" stroke="none" stroke-width="1" fill="none" fill-rule="evenodd" transform="translate(-344.000000, -3710.000000)">
        <g id="footer" transform="translate(0.000000, 3632.000000)" fill="#FCFCFC" fill-rule="nonzero">
            <g id="instagram" transform="translate(344.000000, 78.000000)">
                <path d="M19.9995931,15 C19.9995931,12.2463178 17.7536822,10.0004069 15,10.0004069 C12.2463178,10.0004069 10.0004069,12.2463178 10.0004069,15 C10.0004069,17.7536822 12.2463178,19.9995931 15,19.9995931 C17.7536822,19.9995931 19.9995931,17.7536822 19.9995931,15 Z M22.6946863,15 C22.6946863,19.257466 19.257466,22.6946863 15,22.6946863 C10.742534,22.6946863 7.3053137,19.257466 7.3053137,15 C7.3053137,10.742534 10.742534,7.30531369 15,7.30531369 C19.257466,7.30531369 22.6946863,10.742534 22.6946863,15 Z M24.8038897,6.99283911 C24.8038897,7.98885181 24.0031736,8.7895679 23.0071609,8.7895679 C22.0111482,8.7895679 21.2104321,7.98885181 21.2104321,6.99283911 C21.2104321,5.99682642 22.0111482,5.19611033 23.0071609,5.19611033 C24.0031736,5.19611033 24.8038897,5.99682642 24.8038897,6.99283911 Z M15,2.69631377 C12.812678,2.69631377 8.12555944,2.52054682 6.15306372,3.30173325 C5.46952559,3.5751485 4.96175441,3.90715273 4.43445358,4.43445357 C3.90715274,4.9617544 3.57514851,5.46952558 3.30173326,6.15306371 C2.52054683,8.12555943 2.69631378,12.812678 2.69631378,15 C2.69631378,17.187322 2.52054683,21.8744406 3.30173326,23.8469363 C3.57514851,24.5304744 3.90715274,25.0382456 4.43445358,25.5655464 C4.96175441,26.0928473 5.46952559,26.4248515 6.15306372,26.6982667 C8.12555944,27.4794532 12.812678,27.3036862 15,27.3036862 C17.187322,27.3036862 21.8744406,27.4794532 23.8469363,26.6982667 C24.5304744,26.4248515 25.0382456,26.0928473 25.5655464,25.5655464 C26.0928473,25.0382456 26.4248515,24.5304744 26.6982667,23.8469363 C27.4794532,21.8744406 27.3036862,17.187322 27.3036862,15 C27.3036862,12.812678 27.4794532,8.12555943 26.6982667,6.15306371 C26.4248515,5.46952558 26.0928473,4.9617544 25.5655464,4.43445357 C25.0382456,3.90715273 24.5304744,3.5751485 23.8469363,3.30173325 C21.8744406,2.52054682 17.187322,2.69631377 15,2.69631377 Z M29.9987794,15 C29.9987794,17.070144 30.0183091,19.1207584 29.9011311,21.1909024 C29.7839531,23.5930507 29.2371226,25.7217837 27.4794532,27.4794532 C25.7217837,29.2371226 23.5930507,29.7839531 21.1909024,29.9011311 C19.1207584,30.0183091 17.070144,29.9987794 15,29.9987794 C12.929856,29.9987794 10.8792416,30.0183091 8.80909757,29.9011311 C6.4069493,29.7839531 4.27821629,29.2371226 2.52054683,27.4794532 C0.76287737,25.7217837 0.216046871,23.5930507 0.0988689072,21.1909024 C-0.0183090569,19.1207584 0.00122060379,17.070144 0.00122060379,15 C0.00122060379,12.929856 -0.0183090569,10.8792416 0.0988689072,8.80909756 C0.216046871,6.40694929 0.76287737,4.27821628 2.52054683,2.52054682 C4.27821629,0.76287736 6.4069493,0.216046862 8.80909757,0.0988688978 C10.8792416,-0.0183090663 12.929856,0.00122059442 15,0.00122059442 C17.070144,0.00122059442 19.1207584,-0.0183090663 21.1909024,0.0988688978 C23.5930507,0.216046862 25.7217837,0.76287736 27.4794532,2.52054682 C29.2371226,4.27821628 29.7839531,6.40694929 29.9011311,8.80909756 C30.0183091,10.8792416 29.9987794,12.929856 29.9987794,15 Z" id="Shape" transform="translate(15.000000, 15.000000) scale(-1, 1) rotate(-180.000000) translate(-15.000000, -15.000000) "></path>
            </g>
        </g>
    </g>
</svg>