<?xml version="1.0" encoding="UTF-8"?>
<svg width="30px" height="28px" viewBox="0 0 30 28" version="1.1" xmlns="http://www.w3.org/2000/svg" xmlns:xlink="http://www.w3.org/1999/xlink">
    <!-- Generator: Sketch 48.1 (47250) - http://www.bohemiancoding.com/sketch -->
    <title>linkedin</title>
    <desc>Created with Sketch.</desc>
    <defs></defs>
    <g id="Desktop-HD" stroke="none" stroke-width="1" fill="none" fill-rule="evenodd" transform="translate(-374.000000, -3779.000000)">
        <g id="footer" transform="translate(0.000000, 3632.000000)" fill="#FCFCFC" fill-rule="nonzero">
            <g id="linkedin" transform="translate(374.000000, 147.000000)">
                <path d="M6.59971759,9.0202444 L0.359296946,9.0202444 L0.359296946,27.7604167 L6.59971759,27.7604167 L6.59971759,9.0202444 Z M6.99683526,3.23367251 C6.9779249,1.39936705 5.65419931,0 3.517328,0 C1.39936705,0 -1.77635684e-15,1.39936705 -1.77635684e-15,3.23367251 C-1.77635684e-15,5.03015724 1.34263596,6.46734503 3.44168653,6.46734503 L3.47950727,6.46734503 C5.65419931,6.46734503 7.01574563,5.03015724 6.99683526,3.23367251 Z M16.2629144,11.6838671 L16.2629144,9.0202444 L10.0414041,9.0202444 C10.0414041,9.0202444 10.1170456,10.7789084 10.0414041,27.7604167 L16.2629144,27.7604167 L16.2629144,17.3029845 C16.2629144,16.7356735 16.3196455,16.1872729 16.4709284,15.7712449 C16.9247772,14.6555333 17.9459369,13.502001 19.6667802,13.502001 C21.9171137,13.502001 22.8248113,15.2228443 22.8248113,17.7379229 L22.8248113,27.7604167 L29.0463215,27.7604167 L29.0463215,17.019329 C29.0463215,11.2705779 25.9828423,8.58530597 21.879293,8.58530597 C18.5647863,8.58530597 17.0838512,10.4005419 16.2629144,11.6838671 Z" id="Shape"></path>
            </g>
        </g>
    </g>
</svg>