<?xml version="1.0" encoding="UTF-8"?>
<svg width="317px" height="311px" viewBox="0 0 317 311" version="1.1" xmlns="http://www.w3.org/2000/svg" xmlns:xlink="http://www.w3.org/1999/xlink">
    <!-- Generator: Sketch 48.1 (47250) - http://www.bohemiancoding.com/sketch -->
    <title>MeteoItalyBot</title>
    <desc>Created with Sketch.</desc>
    <defs></defs>
    <g id="Desktop-HD" stroke="none" stroke-width="1" fill="none" fill-rule="evenodd" transform="translate(-173.000000, -131.000000)">
        <g id="present-section">
            <g id="dx-part" transform="translate(173.000000, 131.000000)">
                <g id="MeteoItalyBot">
                    <g id="Group">
                        <path d="M279.195712,111.419627 C279.195712,111.419627 302.98728,106.090504 310.917802,111.419627 C318.848325,116.74875 318.848325,127.406996 310.917802,132.736119 C302.98728,138.065241 279.195712,132.736119 279.195712,132.736119 L279.195712,111.419627 Z M250.011388,192.371542 L264.730438,177.906779 C264.730438,177.906779 282.866456,189.227576 283.763693,196.685593 C284.660929,204.143611 278.236903,212.865237 268.790866,211.657891 C259.344829,210.450546 250.011388,192.371542 250.011388,192.371542 Z M283.763693,47.470152 C282.623141,56.9506496 264.730438,66.5027338 264.730438,66.5027338 L250.011388,51.5304361 C250.011388,51.5304361 261.339794,33.6479599 268.790866,32.7516221 C276.241937,31.8552842 284.904244,37.9896544 283.763693,47.470152 Z M204.839131,6.35977528 C210.041554,14.1631338 204.839131,37.5732095 204.839131,37.5732095 L184.02944,37.5732095 C184.02944,37.5732095 178.827017,14.1631338 184.02944,6.35977528 C189.231863,-1.44358327 199.636709,-1.44358327 204.839131,6.35977528 Z M109.67286,111.419627 L109.67286,132.736119 C109.67286,132.736119 85.8812919,138.065241 77.9507692,132.736119 C70.0202466,127.406996 70.0202466,116.74875 77.9507692,111.419627 C85.8812919,106.090504 109.67286,111.419627 109.67286,111.419627 Z M138.857183,51.5304361 L124.138133,66.5027338 C124.138133,66.5027338 105.994549,54.8652713 105.104879,47.470152 C104.215209,40.0750328 110.652686,31.6178252 120.077705,32.7516221 C129.502725,33.885419 138.857183,51.5304361 138.857183,51.5304361 Z" id="wb_sunny---material" fill="#FFFFFF"></path>
                        <path d="M194.434286,68.3821656 C184.688386,68.3821656 175.81035,70.7519161 167.619212,75.5239757 C159.384736,80.3212835 152.929515,86.7762768 148.13206,95.0104221 C143.359896,103.201161 140.990105,112.078723 140.990105,121.824105 C140.990105,131.569487 143.359896,140.447049 148.13206,148.637788 C152.929515,156.871933 159.384736,163.326926 167.619212,168.124234 C175.81035,172.896294 184.688386,175.266044 194.434286,175.266044 C204.180186,175.266044 213.058222,172.896294 221.249359,168.124234 C229.483836,163.326926 235.939057,156.871933 240.736511,148.637788 C245.508675,140.447049 247.878467,131.569487 247.878467,121.824105 C247.878467,112.078723 245.508675,103.201161 240.736511,95.0104221 C235.939057,86.7762768 229.483836,80.3212835 221.249359,75.5239757 C213.058222,70.7519161 204.180186,68.3821656 194.434286,68.3821656 Z" id="Path" stroke="#FFFFFF" stroke-width="20"></path>
                        <path d="M188.004396,140.241199 C196.235939,140.862425 203.768464,143.38612 210.602198,147.81236 C217.435932,152.238599 222.871775,158.023685 226.90989,165.16779 C230.948006,172.311896 232.967033,180.077112 232.967033,188.46367 C232.967033,197.316149 230.792696,205.469626 226.443956,212.924345 C222.095216,220.379063 216.193444,226.280627 208.738462,230.629213 C201.283479,234.9778 193.129715,237.15206 184.276923,237.15206 L58.2417582,237.15206 C47.6805333,237.15206 37.9348432,234.550713 29.0043956,229.34794 C20.073948,224.145167 13.007352,217.078821 7.8043956,208.148689 C2.60143919,199.218557 0,189.473211 0,178.91236 C0,169.128041 2.29081958,160.003912 6.87252747,151.5397 C11.4542354,143.075488 17.7054549,136.164446 25.6263736,130.806367 C33.5472924,125.448288 42.3222962,122.225723 51.9516484,121.138577 C58.1641336,109.179965 66.9391375,99.6287498 78.2769231,92.4846442 C89.925333,85.1852319 102.660737,81.5355805 116.483516,81.5355805 C128.131926,81.5355805 139.003613,84.0981017 149.098901,89.223221 C159.038878,94.1930336 167.425607,101.142902 174.259341,110.073034 C181.093074,119.003166 185.674714,129.05912 188.004396,140.241199 Z" id="cloud---material" fill="#FFFFFF"></path>
                        <g id="goccia" transform="translate(111.587912, 276.277154) scale(1, -1) translate(-111.587912, -276.277154) translate(49.087912, 242.277154)" stroke="#FFFFFF" stroke-width="5">
                            <path d="M6.63330897,60.1935483 C10.0290313,66.9847529 14.3981562,66.9849226 17.7939633,60.1935483 L19.6337321,56.5141407 C23.1199493,49.5419527 20.0059645,44.5 12.2136361,44.5 C4.42222313,44.5 1.30742308,49.5421529 4.79354019,56.5141407 L6.63330897,60.1935483 Z M42.0130794,42.6542225 C45.4088017,49.4454271 49.7779266,49.4455967 53.1737338,42.6542225 L55.0135025,38.9748149 C58.4997198,32.0026268 55.385735,26.9606742 47.5934066,26.9606742 C39.8019936,26.9606742 36.6871935,32.002827 40.1733106,38.9748149 L42.0130794,42.6542225 Z M72.7760903,18.1935483 C76.1718125,24.9847529 80.5409375,24.9849226 83.9367446,18.1935483 L85.7765134,14.5141407 C89.2627306,7.54195266 86.1487458,2.5 78.3564174,2.5 C70.5650044,2.5 67.4502044,7.54215288 70.9363215,14.5141407 L72.7760903,18.1935483 Z M76.9581344,60.1261326 C80.3538567,66.9173372 84.7229816,66.9175069 88.1187887,60.1261326 L89.9585575,56.446725 C93.4447747,49.4745369 90.3307899,44.4325843 82.5384615,44.4325843 C74.7470485,44.4325843 71.6322485,49.4747371 75.1183656,56.446725 L76.9581344,60.1261326 Z M107.77609,43.1935483 C111.171813,49.9847529 115.540937,49.9849226 118.936745,43.1935483 L120.776513,39.5141407 C124.262731,32.5419527 121.148746,27.5 113.356417,27.5 C105.565004,27.5 102.450204,32.5421529 105.936321,39.5141407 L107.77609,43.1935483 Z" id="Combined-Shape"></path>
                        </g>
                    </g>
                </g>
            </g>
        </g>
    </g>
</svg>