<?xml version="1.0" encoding="UTF-8"?>
<svg width="51px" height="60px" viewBox="0 0 51 60" version="1.1" xmlns="http://www.w3.org/2000/svg" xmlns:xlink="http://www.w3.org/1999/xlink">
    <!-- Generator: Sketch 48.1 (47250) - http://www.bohemiancoding.com/sketch -->
    <title>calendar</title>
    <desc>Created with Sketch.</desc>
    <defs></defs>
    <g id="Desktop-HD" stroke="none" stroke-width="1" fill="none" fill-rule="evenodd" transform="translate(-781.000000, -1637.000000)">
        <g id="second-function" transform="translate(0.000000, 1532.000000)" fill="#FCFCFC">
            <g id="tomorrow.icon" transform="translate(781.000000, 105.000000)">
                <g id="calendar">
                    <path d="M8.0142857,51.9857143 L42.9857143,51.9857143 L42.9857143,17.0142857 L8.0142857,17.0142857 L8.0142857,51.9857143 Z M0,9 L51,9 L51,60 L0,60 L0,9 Z" id="Combined-Shape" fill-rule="nonzero"></path>
                    <path d="M41.5,7 C39.5670033,7 38,5.43299662 38,3.5 C38,1.56700337 39.5670033,0 41.5,0 C43.4329967,0 45,1.56700337 45,3.5 C45,5.43299662 43.4329967,7 41.5,7 Z" id="Path" fill-rule="nonzero"></path>
                    <polygon id="1" fill-rule="nonzero" points="33 45 29.4563279 45 29.4563279 30.5089163 26 31.9032921 26 28.8278463 32.6256683 26 33 26"></polygon>
                    <path d="M8.50000001,7 C6.56700336,7 5,5.43299662 5,3.5 C5,1.56700337 6.56700336,0 8.50000001,0 C10.4329966,0 12,1.56700337 12,3.5 C12,5.43299662 10.4329966,7 8.50000001,7 Z" id="Path" fill-rule="nonzero"></path>
                    <polygon id="Path" fill-rule="nonzero" points="40 4 43 4 43 11 40 11"></polygon>
                    <polygon id="Path" fill-rule="nonzero" points="7 4 10 4 10 11 7 11"></polygon>
                    <path d="M21,34.5 L23,34.5 L23,36.5 L21,36.5 L21,38.5 L19,38.5 L19,36.5 L17,36.5 L17,34.5 L19,34.5 L19,32.5 L21,32.5 L21,34.5 Z" id="Combined-Shape"></path>
                </g>
            </g>
        </g>
    </g>
</svg>